# xmcd
#
# Track frame offsets:
#	150
#	16492
#	28537
#	41328
#	55948
#	69875
#	86499
#	102547
#	118078
#	133636
#	147109
#	161035
#	171008
#	183945
#	193840
#	208403
#	223463
#
# Disc length: 3121 seconds
#
# Revision: 7
# Processed by: cddbd v1.5.2PL0 Copyright (c) Steve Scherf et al.
# Submitted via: EasyCDDAExtractor 11.9.9.666
#
DISCID=fc0c2f11
DTITLE=Teodoro and Sampaio - Anna Júlia
DYEAR=2005
DGENRE=Sertanejo
TTITLE0=Anna Júlia
TTITLE1=Aconteceu Comigo
TTITLE2=Tonto de Paixão
TTITLE3=Ela Vai Voltar
TTITLE4=Mulher Boa
TTITLE5=O Tocador
TTITLE6=Toco da Saia
TTITLE7=Cunhado (Fale com o Seu Irmão)
TTITLE8=Ela Mexe Comigo
TTITLE9=Só Tô Comendo
TTITLE10=Namorada do Carinha
TTITLE11=Deixa a Paixão Entrar
TTITLE12=Na Mira do Chifrudo
TTITLE13=Silicone Lá
TTITLE14=Apaixonado.com
TTITLE15=O Garrafão
TTITLE16=Garanhão da Madrugada
EXTD=
EXTT0=
EXTT1=
EXTT2=
EXTT3=
EXTT4=
EXTT5=
EXTT6=
EXTT7=
EXTT8=
EXTT9=
EXTT10=
EXTT11=
EXTT12=
EXTT13=
EXTT14=
EXTT15=
EXTT16=
PLAYORDER=
